<svg width="93" height="43" viewBox="0 0 93 43" fill="none" xmlns="http://www.w3.org/2000/svg">
<g clip-path="url(#clip0_610_657)">
<path d="M40.8149 13.4579V19.6454H45.3149V15.1454C45.3149 14.847 45.4335 14.5609 45.6444 14.3499C45.8554 14.1389 46.1416 14.0204 46.4399 14.0204H47.5649C47.8633 14.0204 48.1495 14.1389 48.3604 14.3499C48.5714 14.5609 48.6899 14.847 48.6899 15.1454V19.6454H53.1899V13.4579" stroke="#03A84E" stroke-width="1.12" stroke-linecap="round" stroke-linejoin="round"/>
<path d="M38.5649 12.3329L46.2067 4.69115C46.3112 4.58661 46.4352 4.50368 46.5718 4.44709C46.7083 4.39051 46.8546 4.36139 47.0024 4.36139C47.1502 4.36139 47.2966 4.39051 47.4331 4.44709C47.5697 4.50368 47.6937 4.58661 47.7982 4.69115L55.4399 12.3329" stroke="#03A84E" stroke-width="1.12" stroke-linecap="round" stroke-linejoin="round"/>
</g>
<path d="M36.8516 29.6445H38.2578V38H36.8516V34.4316H32.9727V38H31.5664V29.6445H32.9727V33.1953H36.8516V29.6445ZM42.9629 38.1113C42.0527 38.1113 41.3086 37.8359 40.7305 37.2852C40.1523 36.7305 39.8633 35.9844 39.8633 35.0469C39.8633 34.1172 40.1523 33.377 40.7305 32.8262C41.3086 32.2715 42.0527 31.9941 42.9629 31.9941C43.877 31.9941 44.623 32.2695 45.2012 32.8203C45.7793 33.3711 46.0684 34.1133 46.0684 35.0469C46.0684 35.9844 45.7793 36.7305 45.2012 37.2852C44.623 37.8359 43.877 38.1113 42.9629 38.1113ZM42.9512 37.0215C43.4707 37.0215 43.8965 36.8398 44.2285 36.4766C44.5605 36.1133 44.7266 35.6367 44.7266 35.0469C44.7266 34.457 44.5605 33.9824 44.2285 33.623C43.8965 33.2598 43.4707 33.0781 42.9512 33.0781C42.4434 33.0781 42.0254 33.2598 41.6973 33.623C41.3691 33.9824 41.2051 34.457 41.2051 35.0469C41.2051 35.6367 41.3672 36.1133 41.6914 36.4766C42.0195 36.8398 42.4395 37.0215 42.9512 37.0215ZM54.0078 31.9941C54.6133 31.9941 55.0957 32.1582 55.4551 32.4863C55.8145 32.8105 55.9941 33.2715 55.9941 33.8691V38H54.6406V34.2441C54.6406 33.8652 54.543 33.5801 54.3477 33.3887C54.1523 33.1934 53.9062 33.0957 53.6094 33.0957C53.2617 33.0957 52.9785 33.2129 52.7598 33.4473C52.5449 33.6777 52.4375 34.0352 52.4375 34.5195V38H51.0664V34.2734C51.0664 33.8867 50.9668 33.5938 50.7676 33.3945C50.5723 33.1953 50.3223 33.0957 50.0176 33.0957C49.6699 33.0957 49.3867 33.2168 49.168 33.459C48.9492 33.6973 48.8398 34.0703 48.8398 34.5781V38H47.498V32.1055H48.8398V32.832C49.2266 32.2734 49.7812 31.9941 50.5039 31.9941C50.9062 31.9941 51.2578 32.0742 51.5586 32.2344C51.8594 32.3906 52.0859 32.6172 52.2383 32.9141C52.6289 32.3008 53.2188 31.9941 54.0078 31.9941ZM63.1484 34.9531L63.1309 35.293H58.6484C58.6719 35.8555 58.8438 36.2852 59.1641 36.582C59.4844 36.8789 59.8809 37.0273 60.3535 37.0273C60.6816 37.0273 60.9727 36.9473 61.2266 36.7871C61.4844 36.627 61.6797 36.3984 61.8125 36.1016L63.043 36.3125C62.8398 36.8789 62.5 37.3203 62.0234 37.6367C61.5469 37.9531 60.9941 38.1113 60.3652 38.1113C59.4473 38.1113 58.7109 37.8398 58.1562 37.2969C57.6016 36.7539 57.3242 36.0059 57.3242 35.0527C57.3242 34.1035 57.6016 33.3555 58.1562 32.8086C58.7109 32.2617 59.4336 31.9883 60.3242 31.9883C61.1719 31.9883 61.8535 32.2402 62.3691 32.7441C62.8848 33.2441 63.1445 33.9805 63.1484 34.9531ZM60.3301 32.9902C59.9043 32.9902 59.5488 33.0977 59.2637 33.3125C58.9824 33.5234 58.7969 33.8477 58.707 34.2852H61.7949C61.7441 33.8594 61.5879 33.5371 61.3262 33.3184C61.0645 33.0996 60.7324 32.9902 60.3301 32.9902Z" fill="#03A84E"/>
<defs>
<clipPath id="clip0_610_657">
<rect width="18" height="18" fill="white" transform="translate(38 3)"/>
</clipPath>
</defs>
</svg>
