<svg width="93" height="43" viewBox="0 0 93 43" fill="none" xmlns="http://www.w3.org/2000/svg">
<path d="M45.6499 18.5812C45.7356 18.8733 45.9137 19.1297 46.1573 19.3122C46.401 19.4946 46.6972 19.5932 47.0016 19.5932C47.306 19.5932 47.6022 19.4946 47.8458 19.3122C48.0895 19.1297 48.2675 18.8733 48.3533 18.5812" stroke="#8AA398" stroke-width="1.12" stroke-linecap="round" stroke-linejoin="round"/>
<path d="M47 5.925V4.40625" stroke="#8AA398" stroke-width="1.12" stroke-linecap="round" stroke-linejoin="round"/>
<path d="M46.9998 5.92499C48.3425 5.92499 49.6301 6.45836 50.5795 7.40776C51.5289 8.35716 52.0623 9.64483 52.0623 10.9875C52.0623 15.7435 53.0748 16.5562 53.0748 16.5562H40.9248C40.9248 16.5562 41.9373 15.2629 41.9373 10.9875C41.9373 9.64483 42.4707 8.35716 43.4201 7.40776C44.3695 6.45836 45.6571 5.92499 46.9998 5.92499V5.92499Z" stroke="#8AA398" stroke-width="1.12" stroke-linecap="round" stroke-linejoin="round"/>
<path d="M19.2324 29.75H20.2754V38H19.168L14.7207 31.3262V38H13.6895V29.75H14.7852L19.2324 36.3945V29.75ZM24.9453 38.1113C24.3984 38.1113 23.9062 37.9922 23.4688 37.7539C23.0312 37.5156 22.6836 37.168 22.4258 36.7109C22.1719 36.25 22.0449 35.7188 22.0449 35.1172C22.0449 34.2148 22.3164 33.4922 22.8594 32.9492C23.4062 32.4023 24.1016 32.1289 24.9453 32.1289C25.793 32.1289 26.4883 32.4023 27.0312 32.9492C27.5742 33.4922 27.8457 34.2148 27.8457 35.1172C27.8457 36.0234 27.5723 36.75 27.0254 37.2969C26.4824 37.8398 25.7891 38.1113 24.9453 38.1113ZM24.9395 37.2676C25.4863 37.2676 25.9395 37.0703 26.2988 36.6758C26.6621 36.2812 26.8438 35.7617 26.8438 35.1172C26.8438 34.4766 26.6621 33.959 26.2988 33.5645C25.9395 33.1699 25.4863 32.9727 24.9395 32.9727C24.3965 32.9727 23.9453 33.1699 23.5859 33.5645C23.2305 33.959 23.0527 34.4766 23.0527 35.1172C23.0527 35.7617 23.2305 36.2812 23.5859 36.6758C23.9453 37.0703 24.3965 37.2676 24.9395 37.2676ZM31.2734 38C30.7969 38 30.4219 37.8633 30.1484 37.5898C29.875 37.3125 29.7383 36.9277 29.7383 36.4355V33.0488H28.5605V32.2402H28.9941C29.2949 32.2402 29.5059 32.1738 29.627 32.041C29.752 31.9043 29.8145 31.6777 29.8145 31.3613V30.3184H30.7578V32.2402H32.082V33.0488H30.7578V36.3301C30.7578 36.6035 30.8301 36.8164 30.9746 36.9688C31.123 37.1172 31.3164 37.1914 31.5547 37.1914H32.082V38H31.2734ZM34.0625 30.8867C33.875 30.8867 33.7129 30.8203 33.5762 30.6875C33.4434 30.5508 33.377 30.3887 33.377 30.2012C33.377 30.0137 33.4434 29.8535 33.5762 29.7207C33.7129 29.5879 33.875 29.5215 34.0625 29.5215C34.2461 29.5215 34.4043 29.5879 34.5371 29.7207C34.6738 29.8535 34.7422 30.0137 34.7422 30.2012C34.7422 30.3887 34.6738 30.5508 34.5371 30.6875C34.4043 30.8203 34.2461 30.8867 34.0625 30.8867ZM33.5469 38V32.2402H34.5664V38H33.5469ZM36.9277 31.0332C36.9277 30.7832 36.9473 30.5605 36.9863 30.3652C37.0293 30.166 37.084 29.9961 37.1504 29.8555C37.2207 29.7148 37.3125 29.5938 37.4258 29.4922C37.5391 29.3867 37.6562 29.3027 37.7773 29.2402C37.9023 29.1777 38.0488 29.1289 38.2168 29.0938C38.3848 29.0586 38.5488 29.0352 38.709 29.0234C38.873 29.0078 39.0605 29 39.2715 29V29.8496C39.1699 29.8496 39.0957 29.8496 39.0488 29.8496C39.0059 29.8496 38.9355 29.8535 38.8379 29.8613C38.7441 29.8691 38.6738 29.8789 38.627 29.8906C38.584 29.9023 38.5234 29.9219 38.4453 29.9492C38.3711 29.9766 38.3145 30.0098 38.2754 30.0488C38.2363 30.0879 38.1914 30.1387 38.1406 30.2012C38.0898 30.2598 38.0508 30.3301 38.0234 30.4121C38 30.4902 37.9785 30.584 37.959 30.6934C37.9434 30.7988 37.9355 30.918 37.9355 31.0508V32.2402H39.2715V33.0488H37.9355V38H36.9277V33.0488H35.8145V32.2402H36.9277V31.0332ZM40.959 30.8867C40.7715 30.8867 40.6094 30.8203 40.4727 30.6875C40.3398 30.5508 40.2734 30.3887 40.2734 30.2012C40.2734 30.0137 40.3398 29.8535 40.4727 29.7207C40.6094 29.5879 40.7715 29.5215 40.959 29.5215C41.1426 29.5215 41.3008 29.5879 41.4336 29.7207C41.5703 29.8535 41.6387 30.0137 41.6387 30.2012C41.6387 30.3887 41.5703 30.5508 41.4336 30.6875C41.3008 30.8203 41.1426 30.8867 40.959 30.8867ZM40.4434 38V32.2402H41.4629V38H40.4434ZM45.9219 38.1055C45.0898 38.1055 44.4023 37.8301 43.8594 37.2793C43.3164 36.7285 43.0449 36.0078 43.0449 35.1172C43.0449 34.2266 43.3145 33.5059 43.8535 32.9551C44.3965 32.4043 45.0859 32.1289 45.9219 32.1289C46.5625 32.1289 47.1172 32.2969 47.5859 32.6328C48.0586 32.9688 48.3828 33.4355 48.5586 34.0332L47.6094 34.1855C47.4766 33.7988 47.2598 33.5 46.959 33.2891C46.6582 33.0781 46.3105 32.9727 45.916 32.9727C45.377 32.9727 44.9316 33.1699 44.5801 33.5645C44.2324 33.959 44.0586 34.4766 44.0586 35.1172C44.0586 35.7578 44.2324 36.2754 44.5801 36.6699C44.9316 37.0605 45.377 37.2559 45.916 37.2559C46.3105 37.2559 46.6582 37.1504 46.959 36.9395C47.2598 36.7285 47.4766 36.4297 47.6094 36.043L48.5586 36.2012C48.3828 36.7949 48.0566 37.2617 47.5801 37.6016C47.1074 37.9375 46.5547 38.1055 45.9219 38.1055ZM51.3887 38.1113C50.877 38.1113 50.4551 37.9805 50.123 37.7188C49.7949 37.4531 49.6309 37.0586 49.6309 36.5352C49.6309 36.2461 49.6836 35.9961 49.7891 35.7852C49.8945 35.5703 50.0508 35.3945 50.2578 35.2578C50.4648 35.1211 50.6895 35.0137 50.9316 34.9355C51.1777 34.8535 51.4707 34.7832 51.8105 34.7246L52.7422 34.5723C53.082 34.5098 53.252 34.332 53.252 34.0391C53.252 33.6484 53.1309 33.3633 52.8887 33.1836C52.6504 33 52.3477 32.9082 51.9805 32.9082C51.6211 32.9082 51.3203 32.9961 51.0781 33.1719C50.8359 33.3477 50.6934 33.6172 50.6504 33.9805L49.7363 33.7871C49.8223 33.2402 50.0625 32.8301 50.457 32.5566C50.8516 32.2793 51.375 32.1406 52.0273 32.1406C52.332 32.1406 52.6094 32.1758 52.8594 32.2461C53.1133 32.3125 53.3457 32.4199 53.5566 32.5684C53.7715 32.7129 53.9375 32.9199 54.0547 33.1895C54.1758 33.4551 54.2363 33.7695 54.2363 34.1328V36.5117C54.2363 36.8086 54.2793 37.0098 54.3652 37.1152C54.4551 37.2168 54.6074 37.2676 54.8223 37.2676H54.916V38H54.4121C53.791 38 53.4277 37.7402 53.3223 37.2207H53.2754C52.8379 37.8145 52.209 38.1113 51.3887 38.1113ZM51.623 37.291C52.1348 37.291 52.5469 37.1055 52.8594 36.7344C53.1719 36.3633 53.3281 35.8555 53.3281 35.2109L51.8047 35.5039C51.4023 35.5703 51.1035 35.6777 50.9082 35.8262C50.7168 35.9707 50.6211 36.1797 50.6211 36.4531C50.6211 36.7383 50.7129 36.9492 50.8965 37.0859C51.084 37.2227 51.3262 37.291 51.623 37.291ZM58.1562 38C57.6797 38 57.3047 37.8633 57.0312 37.5898C56.7578 37.3125 56.6211 36.9277 56.6211 36.4355V33.0488H55.4434V32.2402H55.877C56.1777 32.2402 56.3887 32.1738 56.5098 32.041C56.6348 31.9043 56.6973 31.6777 56.6973 31.3613V30.3184H57.6406V32.2402H58.9648V33.0488H57.6406V36.3301C57.6406 36.6035 57.7129 36.8164 57.8574 36.9688C58.0059 37.1172 58.1992 37.1914 58.4375 37.1914H58.9648V38H58.1562ZM60.9453 30.8867C60.7578 30.8867 60.5957 30.8203 60.459 30.6875C60.3262 30.5508 60.2598 30.3887 60.2598 30.2012C60.2598 30.0137 60.3262 29.8535 60.459 29.7207C60.5957 29.5879 60.7578 29.5215 60.9453 29.5215C61.1289 29.5215 61.2871 29.5879 61.4199 29.7207C61.5566 29.8535 61.625 30.0137 61.625 30.2012C61.625 30.3887 61.5566 30.5508 61.4199 30.6875C61.2871 30.8203 61.1289 30.8867 60.9453 30.8867ZM60.4297 38V32.2402H61.4492V38H60.4297ZM65.9375 38.1113C65.3906 38.1113 64.8984 37.9922 64.4609 37.7539C64.0234 37.5156 63.6758 37.168 63.418 36.7109C63.1641 36.25 63.0371 35.7188 63.0371 35.1172C63.0371 34.2148 63.3086 33.4922 63.8516 32.9492C64.3984 32.4023 65.0938 32.1289 65.9375 32.1289C66.7852 32.1289 67.4805 32.4023 68.0234 32.9492C68.5664 33.4922 68.8379 34.2148 68.8379 35.1172C68.8379 36.0234 68.5645 36.75 68.0176 37.2969C67.4746 37.8398 66.7812 38.1113 65.9375 38.1113ZM65.9316 37.2676C66.4785 37.2676 66.9316 37.0703 67.291 36.6758C67.6543 36.2812 67.8359 35.7617 67.8359 35.1172C67.8359 34.4766 67.6543 33.959 67.291 33.5645C66.9316 33.1699 66.4785 32.9727 65.9316 32.9727C65.3887 32.9727 64.9375 33.1699 64.5781 33.5645C64.2227 33.959 64.0449 34.4766 64.0449 35.1172C64.0449 35.7617 64.2227 36.2812 64.5781 36.6758C64.9375 37.0703 65.3887 37.2676 65.9316 37.2676ZM73.1445 32.1289C73.75 32.1289 74.2324 32.3027 74.5918 32.6504C74.9551 32.998 75.1367 33.4883 75.1367 34.1211V38H74.123V34.3496C74.123 33.8848 74.0059 33.541 73.7715 33.3184C73.5371 33.0957 73.2363 32.9844 72.8691 32.9844C72.4512 32.9844 72.1094 33.1172 71.8438 33.3828C71.5781 33.6445 71.4434 34.0352 71.4395 34.5547V38H70.4258V32.2402H71.4395V32.9785C71.8223 32.4121 72.3906 32.1289 73.1445 32.1289ZM78.916 38.1113C78.2949 38.1113 77.7773 37.9727 77.3633 37.6953C76.9492 37.418 76.6973 37.0234 76.6074 36.5117L77.4922 36.2598C77.5547 36.6035 77.7109 36.8711 77.9609 37.0625C78.2148 37.25 78.5312 37.3438 78.9102 37.3438C79.1133 37.3438 79.2969 37.3184 79.4609 37.2676C79.6289 37.2168 79.7715 37.123 79.8887 36.9863C80.0059 36.8457 80.0625 36.6699 80.0586 36.459C80.0547 36.373 80.0391 36.2949 80.0117 36.2246C79.9844 36.1504 79.9531 36.0859 79.918 36.0312C79.8828 35.9766 79.8281 35.9238 79.7539 35.873C79.6797 35.8223 79.6133 35.7812 79.5547 35.75C79.4961 35.7188 79.4082 35.6836 79.291 35.6445C79.1777 35.6016 79.0859 35.5703 79.0156 35.5508C78.9453 35.5273 78.8379 35.4961 78.6934 35.457C78.5488 35.4141 78.4375 35.3809 78.3594 35.3574C78.1172 35.2832 77.918 35.2129 77.7617 35.1465C77.6055 35.0801 77.4434 34.9883 77.2754 34.8711C77.1074 34.75 76.9805 34.5977 76.8945 34.4141C76.8125 34.2305 76.7715 34.0156 76.7715 33.7695C76.7715 33.4062 76.8652 33.0996 77.0527 32.8496C77.2402 32.5996 77.4824 32.4199 77.7793 32.3105C78.0801 32.1973 78.4219 32.1406 78.8047 32.1406C79.3594 32.1406 79.8262 32.2656 80.2051 32.5156C80.5879 32.7656 80.8223 33.1406 80.9082 33.6406L80.0762 33.8516C80.0137 33.5273 79.8672 33.2852 79.6367 33.125C79.4062 32.9609 79.1309 32.8789 78.8105 32.8789C78.5098 32.8789 78.252 32.9473 78.0371 33.084C77.8223 33.2168 77.7148 33.4219 77.7148 33.6992C77.7148 33.8164 77.7422 33.9238 77.7969 34.0215C77.8555 34.1152 77.9141 34.1895 77.9727 34.2441C78.0312 34.2988 78.1367 34.3574 78.2891 34.4199C78.4414 34.4785 78.5547 34.5195 78.6289 34.543C78.7031 34.5625 78.8438 34.5977 79.0508 34.6484C79.0898 34.6602 79.1191 34.668 79.1387 34.6719C79.3652 34.7305 79.5488 34.7832 79.6895 34.8301C79.834 34.873 80 34.9434 80.1875 35.041C80.3789 35.1348 80.5293 35.2383 80.6387 35.3516C80.748 35.4648 80.8418 35.6133 80.9199 35.7969C80.998 35.9805 81.0371 36.1875 81.0371 36.418C81.0371 36.7109 80.9785 36.9707 80.8613 37.1973C80.748 37.4199 80.5918 37.5957 80.3926 37.7246C80.1934 37.8535 79.9688 37.9492 79.7188 38.0117C79.4727 38.0781 79.2051 38.1113 78.916 38.1113Z" fill="#8AA398"/>
</svg>
