<svg width="93" height="43" viewBox="0 0 93 43" fill="none" xmlns="http://www.w3.org/2000/svg">
<g clip-path="url(#clip0_610_677)">
<path d="M47.5062 4.40626C46.2432 4.40444 45.0027 4.74066 43.9134 5.38004C42.8241 6.01942 41.9258 6.93866 41.3116 8.04236C40.6975 9.14606 40.3899 10.394 40.4208 11.6567C40.4517 12.9194 40.8199 14.1508 41.4873 15.2231L39.4062 19.5938L43.7762 17.5127C44.7082 18.0922 45.762 18.4473 46.8546 18.5501C47.9472 18.6529 49.0487 18.5006 50.0724 18.1051C51.0961 17.7096 52.014 17.0819 52.7537 16.2713C53.4935 15.4606 54.0349 14.4893 54.3353 13.4338C54.6357 12.3783 54.6868 11.2674 54.4848 10.1888C54.2827 9.11011 53.8329 8.09311 53.1709 7.2179C52.5088 6.34268 51.6525 5.63317 50.6695 5.14526C49.6865 4.65735 48.6037 4.40437 47.5062 4.40626V4.40626Z" stroke="#8AA398" stroke-width="1.12" stroke-linecap="round" stroke-linejoin="round"/>
</g>
<path d="M26.2695 38.1113C25.6953 38.1113 25.1582 38.0156 24.6582 37.8242C24.1621 37.6289 23.7305 37.3555 23.3633 37.0039C23 36.6484 22.7129 36.2051 22.502 35.6738C22.2949 35.1387 22.1914 34.5469 22.1914 33.8984C22.1914 33.0312 22.373 32.2715 22.7363 31.6191C23.0996 30.9668 23.5898 30.4746 24.207 30.1426C24.8242 29.8066 25.5215 29.6387 26.2988 29.6387C27.0566 29.6387 27.7422 29.8027 28.3555 30.1309C28.9688 30.459 29.4512 30.9355 29.8027 31.5605L28.877 32.0586C28.6152 31.5781 28.2598 31.2168 27.8105 30.9746C27.3613 30.7285 26.8574 30.6055 26.2988 30.6055C25.8691 30.6055 25.4688 30.6777 25.0977 30.8223C24.7266 30.9668 24.4023 31.1758 24.125 31.4492C23.8516 31.7188 23.6367 32.0625 23.4805 32.4805C23.3242 32.8984 23.2461 33.3652 23.2461 33.8809C23.2461 34.3926 23.3223 34.8555 23.4746 35.2695C23.6309 35.6836 23.8457 36.0293 24.1191 36.3066C24.3965 36.5801 24.7227 36.791 25.0977 36.9395C25.4766 37.084 25.8867 37.1562 26.3281 37.1562C27.0859 37.1562 27.7148 36.9434 28.2148 36.5176C28.7188 36.0879 29.0156 35.4766 29.1055 34.6836H26.3223V33.793H30.1309V38H29.2695V36.4531C28.9961 36.9844 28.6016 37.3945 28.0859 37.6836C27.5742 37.9688 26.9688 38.1113 26.2695 38.1113ZM33.3828 38.1113C32.8711 38.1113 32.4492 37.9805 32.1172 37.7188C31.7891 37.4531 31.625 37.0586 31.625 36.5352C31.625 36.2461 31.6777 35.9961 31.7832 35.7852C31.8887 35.5703 32.0449 35.3945 32.252 35.2578C32.459 35.1211 32.6836 35.0137 32.9258 34.9355C33.1719 34.8535 33.4648 34.7832 33.8047 34.7246L34.7363 34.5723C35.0762 34.5098 35.2461 34.332 35.2461 34.0391C35.2461 33.6484 35.125 33.3633 34.8828 33.1836C34.6445 33 34.3418 32.9082 33.9746 32.9082C33.6152 32.9082 33.3145 32.9961 33.0723 33.1719C32.8301 33.3477 32.6875 33.6172 32.6445 33.9805L31.7305 33.7871C31.8164 33.2402 32.0566 32.8301 32.4512 32.5566C32.8457 32.2793 33.3691 32.1406 34.0215 32.1406C34.3262 32.1406 34.6035 32.1758 34.8535 32.2461C35.1074 32.3125 35.3398 32.4199 35.5508 32.5684C35.7656 32.7129 35.9316 32.9199 36.0488 33.1895C36.1699 33.4551 36.2305 33.7695 36.2305 34.1328V36.5117C36.2305 36.8086 36.2734 37.0098 36.3594 37.1152C36.4492 37.2168 36.6016 37.2676 36.8164 37.2676H36.9102V38H36.4062C35.7852 38 35.4219 37.7402 35.3164 37.2207H35.2695C34.832 37.8145 34.2031 38.1113 33.3828 38.1113ZM33.6172 37.291C34.1289 37.291 34.541 37.1055 34.8535 36.7344C35.166 36.3633 35.3223 35.8555 35.3223 35.2109L33.7988 35.5039C33.3965 35.5703 33.0977 35.6777 32.9023 35.8262C32.7109 35.9707 32.6152 36.1797 32.6152 36.4531C32.6152 36.7383 32.707 36.9492 32.8906 37.0859C33.0781 37.2227 33.3203 37.291 33.6172 37.291ZM39.3359 33.2539C39.4805 32.9375 39.7188 32.6797 40.0508 32.4805C40.3828 32.2812 40.752 32.1797 41.1582 32.1758V33.1309C40.5723 33.1309 40.125 33.2734 39.8164 33.5586C39.5117 33.8438 39.3594 34.2988 39.3594 34.9238V38H38.3457V32.2402H39.3359V33.2539ZM46.5371 29H47.5508V38H46.5723L46.5488 36.8809C46.3652 37.2637 46.0918 37.5664 45.7285 37.7891C45.3652 38.0117 44.959 38.123 44.5098 38.123C44.1426 38.123 43.7949 38.0527 43.4668 37.9121C43.1387 37.7676 42.8516 37.5684 42.6055 37.3145C42.3633 37.0566 42.1699 36.7383 42.0254 36.3594C41.8848 35.9805 41.8145 35.5684 41.8145 35.123C41.8145 34.2363 42.0742 33.5156 42.5938 32.9609C43.1172 32.4062 43.7559 32.1289 44.5098 32.1289C44.9512 32.1289 45.3516 32.2383 45.7109 32.457C46.0742 32.6719 46.3496 32.9648 46.5371 33.3359V29ZM44.7207 37.2441C45.252 37.2441 45.6973 37.043 46.0566 36.6406C46.4199 36.2344 46.6016 35.7285 46.6016 35.123C46.6016 34.5215 46.4199 34.0176 46.0566 33.6113C45.6934 33.2051 45.248 33.002 44.7207 33.002C44.1855 33.002 43.7363 33.1992 43.373 33.5938C43.0098 33.9844 42.8281 34.4941 42.8281 35.123C42.8281 35.752 43.0098 36.2637 43.373 36.6582C43.7363 37.0488 44.1855 37.2441 44.7207 37.2441ZM54.6582 35.0059L54.6465 35.2812H50.1465C50.1621 35.9219 50.3457 36.4141 50.6973 36.7578C51.0488 37.0977 51.4863 37.2676 52.0098 37.2676C52.3613 37.2676 52.6797 37.1758 52.9648 36.9922C53.25 36.8086 53.4688 36.5547 53.6211 36.2305L54.5352 36.4238C54.3281 36.9473 54 37.3594 53.5508 37.6602C53.1016 37.9609 52.5918 38.1113 52.0215 38.1113C51.166 38.1113 50.4746 37.8438 49.9473 37.3086C49.4199 36.7734 49.1562 36.043 49.1562 35.1172C49.1562 34.1953 49.4199 33.4668 49.9473 32.9316C50.4785 32.3965 51.1602 32.1289 51.9922 32.1289C52.7969 32.1289 53.4414 32.375 53.9258 32.8672C54.4141 33.3594 54.6582 34.0723 54.6582 35.0059ZM51.9922 32.9082C51.5156 32.9082 51.1152 33.0449 50.791 33.3184C50.4707 33.5879 50.2695 33.9824 50.1875 34.502H53.6387C53.5996 33.9824 53.4316 33.5879 53.1348 33.3184C52.8379 33.0449 52.457 32.9082 51.9922 32.9082ZM58.9707 32.1289C59.5762 32.1289 60.0586 32.3027 60.418 32.6504C60.7812 32.998 60.9629 33.4883 60.9629 34.1211V38H59.9492V34.3496C59.9492 33.8848 59.832 33.541 59.5977 33.3184C59.3633 33.0957 59.0625 32.9844 58.6953 32.9844C58.2773 32.9844 57.9355 33.1172 57.6699 33.3828C57.4043 33.6445 57.2695 34.0352 57.2656 34.5547V38H56.252V32.2402H57.2656V32.9785C57.6484 32.4121 58.2168 32.1289 58.9707 32.1289ZM67.959 35.0059L67.9473 35.2812H63.4473C63.4629 35.9219 63.6465 36.4141 63.998 36.7578C64.3496 37.0977 64.7871 37.2676 65.3105 37.2676C65.6621 37.2676 65.9805 37.1758 66.2656 36.9922C66.5508 36.8086 66.7695 36.5547 66.9219 36.2305L67.8359 36.4238C67.6289 36.9473 67.3008 37.3594 66.8516 37.6602C66.4023 37.9609 65.8926 38.1113 65.3223 38.1113C64.4668 38.1113 63.7754 37.8438 63.248 37.3086C62.7207 36.7734 62.457 36.043 62.457 35.1172C62.457 34.1953 62.7207 33.4668 63.248 32.9316C63.7793 32.3965 64.4609 32.1289 65.293 32.1289C66.0977 32.1289 66.7422 32.375 67.2266 32.8672C67.7148 33.3594 67.959 34.0723 67.959 35.0059ZM65.293 32.9082C64.8164 32.9082 64.416 33.0449 64.0918 33.3184C63.7715 33.5879 63.5703 33.9824 63.4883 34.502H66.9395C66.9004 33.9824 66.7324 33.5879 66.4355 33.3184C66.1387 33.0449 65.7578 32.9082 65.293 32.9082ZM70.543 33.2539C70.6875 32.9375 70.9258 32.6797 71.2578 32.4805C71.5898 32.2812 71.959 32.1797 72.3652 32.1758V33.1309C71.7793 33.1309 71.332 33.2734 71.0234 33.5586C70.7188 33.8438 70.5664 34.2988 70.5664 34.9238V38H69.5527V32.2402H70.543V33.2539Z" fill="#8AA398"/>
<defs>
<clipPath id="clip0_610_677">
<rect width="18" height="18" fill="white" transform="translate(38 3)"/>
</clipPath>
</defs>
</svg>
