<svg width="93" height="43" viewBox="0 0 93 43" fill="none" xmlns="http://www.w3.org/2000/svg">
<path d="M48.125 19.5C49.5713 19.5 50.9851 19.0711 52.1876 18.2676C53.3901 17.4641 54.3274 16.3221 54.8809 14.9859C55.4343 13.6497 55.5791 12.1794 55.297 10.7609C55.0148 9.34242 54.3184 8.03946 53.2957 7.01678C52.273 5.99411 50.9701 5.29767 49.5516 5.01551C48.1331 4.73336 46.6628 4.87817 45.3266 5.43163C43.9904 5.9851 42.8484 6.92236 42.0449 8.1249C41.2414 9.32743 40.8125 10.7412 40.8125 12.1875V12.75" stroke="#8AA398" stroke-width="1.12" stroke-linecap="round" stroke-linejoin="round"/>
<path d="M38.5625 10.4976L40.8125 12.7476L43.0625 10.4976" stroke="#8AA398" stroke-width="1.12" stroke-linecap="round" stroke-linejoin="round"/>
<path d="M47.5625 7.68512V12.7476H51.5" stroke="#8AA398" stroke-width="1.12" stroke-linecap="round" stroke-linejoin="round"/>
<path d="M34.3145 29.75H35.3633V38H34.3145V34.3379H30.1367V38H29.082V29.75H30.1367V33.3945H34.3145V29.75ZM38.2051 30.8867C38.0176 30.8867 37.8555 30.8203 37.7188 30.6875C37.5859 30.5508 37.5195 30.3887 37.5195 30.2012C37.5195 30.0137 37.5859 29.8535 37.7188 29.7207C37.8555 29.5879 38.0176 29.5215 38.2051 29.5215C38.3887 29.5215 38.5469 29.5879 38.6797 29.7207C38.8164 29.8535 38.8848 30.0137 38.8848 30.2012C38.8848 30.3887 38.8164 30.5508 38.6797 30.6875C38.5469 30.8203 38.3887 30.8867 38.2051 30.8867ZM37.6895 38V32.2402H38.709V38H37.6895ZM42.5938 38.1113C41.9727 38.1113 41.4551 37.9727 41.041 37.6953C40.627 37.418 40.375 37.0234 40.2852 36.5117L41.1699 36.2598C41.2324 36.6035 41.3887 36.8711 41.6387 37.0625C41.8926 37.25 42.209 37.3438 42.5879 37.3438C42.791 37.3438 42.9746 37.3184 43.1387 37.2676C43.3066 37.2168 43.4492 37.123 43.5664 36.9863C43.6836 36.8457 43.7402 36.6699 43.7363 36.459C43.7324 36.373 43.7168 36.2949 43.6895 36.2246C43.6621 36.1504 43.6309 36.0859 43.5957 36.0312C43.5605 35.9766 43.5059 35.9238 43.4316 35.873C43.3574 35.8223 43.291 35.7812 43.2324 35.75C43.1738 35.7188 43.0859 35.6836 42.9688 35.6445C42.8555 35.6016 42.7637 35.5703 42.6934 35.5508C42.623 35.5273 42.5156 35.4961 42.3711 35.457C42.2266 35.4141 42.1152 35.3809 42.0371 35.3574C41.7949 35.2832 41.5957 35.2129 41.4395 35.1465C41.2832 35.0801 41.1211 34.9883 40.9531 34.8711C40.7852 34.75 40.6582 34.5977 40.5723 34.4141C40.4902 34.2305 40.4492 34.0156 40.4492 33.7695C40.4492 33.4062 40.543 33.0996 40.7305 32.8496C40.918 32.5996 41.1602 32.4199 41.457 32.3105C41.7578 32.1973 42.0996 32.1406 42.4824 32.1406C43.0371 32.1406 43.5039 32.2656 43.8828 32.5156C44.2656 32.7656 44.5 33.1406 44.5859 33.6406L43.7539 33.8516C43.6914 33.5273 43.5449 33.2852 43.3145 33.125C43.084 32.9609 42.8086 32.8789 42.4883 32.8789C42.1875 32.8789 41.9297 32.9473 41.7148 33.084C41.5 33.2168 41.3926 33.4219 41.3926 33.6992C41.3926 33.8164 41.4199 33.9238 41.4746 34.0215C41.5332 34.1152 41.5918 34.1895 41.6504 34.2441C41.709 34.2988 41.8145 34.3574 41.9668 34.4199C42.1191 34.4785 42.2324 34.5195 42.3066 34.543C42.3809 34.5625 42.5215 34.5977 42.7285 34.6484C42.7676 34.6602 42.7969 34.668 42.8164 34.6719C43.043 34.7305 43.2266 34.7832 43.3672 34.8301C43.5117 34.873 43.6777 34.9434 43.8652 35.041C44.0566 35.1348 44.207 35.2383 44.3164 35.3516C44.4258 35.4648 44.5195 35.6133 44.5977 35.7969C44.6758 35.9805 44.7148 36.1875 44.7148 36.418C44.7148 36.7109 44.6562 36.9707 44.5391 37.1973C44.4258 37.4199 44.2695 37.5957 44.0703 37.7246C43.8711 37.8535 43.6465 37.9492 43.3965 38.0117C43.1504 38.0781 42.8828 38.1113 42.5938 38.1113ZM48.1543 38C47.6777 38 47.3027 37.8633 47.0293 37.5898C46.7559 37.3125 46.6191 36.9277 46.6191 36.4355V33.0488H45.4414V32.2402H45.875C46.1758 32.2402 46.3867 32.1738 46.5078 32.041C46.6328 31.9043 46.6953 31.6777 46.6953 31.3613V30.3184H47.6387V32.2402H48.9629V33.0488H47.6387V36.3301C47.6387 36.6035 47.7109 36.8164 47.8555 36.9688C48.0039 37.1172 48.1973 37.1914 48.4355 37.1914H48.9629V38H48.1543ZM52.7832 38.1113C52.2363 38.1113 51.7441 37.9922 51.3066 37.7539C50.8691 37.5156 50.5215 37.168 50.2637 36.7109C50.0098 36.25 49.8828 35.7188 49.8828 35.1172C49.8828 34.2148 50.1543 33.4922 50.6973 32.9492C51.2441 32.4023 51.9395 32.1289 52.7832 32.1289C53.6309 32.1289 54.3262 32.4023 54.8691 32.9492C55.4121 33.4922 55.6836 34.2148 55.6836 35.1172C55.6836 36.0234 55.4102 36.75 54.8633 37.2969C54.3203 37.8398 53.627 38.1113 52.7832 38.1113ZM52.7773 37.2676C53.3242 37.2676 53.7773 37.0703 54.1367 36.6758C54.5 36.2812 54.6816 35.7617 54.6816 35.1172C54.6816 34.4766 54.5 33.959 54.1367 33.5645C53.7773 33.1699 53.3242 32.9727 52.7773 32.9727C52.2344 32.9727 51.7832 33.1699 51.4238 33.5645C51.0684 33.959 50.8906 34.4766 50.8906 35.1172C50.8906 35.7617 51.0684 36.2812 51.4238 36.6758C51.7832 37.0703 52.2344 37.2676 52.7773 37.2676ZM58.2617 33.2539C58.4062 32.9375 58.6445 32.6797 58.9766 32.4805C59.3086 32.2812 59.6777 32.1797 60.084 32.1758V33.1309C59.498 33.1309 59.0508 33.2734 58.7422 33.5586C58.4375 33.8438 58.2852 34.2988 58.2852 34.9238V38H57.2715V32.2402H58.2617V33.2539ZM64.9473 32.2402H66.0195L62.6855 40.7129H61.6367L62.791 37.8594L60.5527 32.2402H61.6777L63.3008 36.7227L64.9473 32.2402Z" fill="#8AA398"/>
</svg>
